<svg width="53" height="52" viewBox="0 0 53 52" fill="none" xmlns="http://www.w3.org/2000/svg">
<path d="M26.491 51C40.2933 51 51.4821 39.8157 51.4821 26.0192C51.4821 12.2227 40.2933 1.03845 26.491 1.03845C12.6888 1.03845 1.5 12.2227 1.5 26.0192C1.5 39.8157 12.6888 51 26.491 51Z" fill="white" stroke="#EE5D52" stroke-width="2" stroke-miterlimit="10" stroke-linecap="round" stroke-linejoin="round"/>
<path d="M12.8157 32.5033V35.2148H29.2026" stroke="#EF5C4E" stroke-width="1.2" stroke-miterlimit="10" stroke-linecap="round" stroke-linejoin="round"/>
<path d="M12.8157 28.3771V23.7793" stroke="#EF5C4E" stroke-width="1.2" stroke-miterlimit="10" stroke-linecap="round" stroke-linejoin="round"/>
<path d="M12.8157 23.7793C13.9946 23.7793 14.9377 22.8361 14.9377 21.6572C14.9377 20.4783 13.9946 19.6531 12.8157 19.6531" stroke="#EF5C4E" stroke-width="1.2" stroke-miterlimit="10" stroke-linecap="round" stroke-linejoin="round"/>
<path d="M12.8157 32.5033C13.9946 32.5033 14.9377 31.5601 14.9377 30.4991C14.9377 29.3202 13.9946 28.3771 12.8157 28.3771" stroke="#EF5C4E" stroke-width="1.2" stroke-miterlimit="10" stroke-linecap="round" stroke-linejoin="round"/>
<path d="M40.1665 28.3771V23.7793" stroke="#EF5C4E" stroke-width="1.2" stroke-miterlimit="10" stroke-linecap="round" stroke-linejoin="round"/>
<path d="M40.1664 32.5033V35.2148H32.1498" stroke="#EF5C4E" stroke-width="1.2" stroke-miterlimit="10" stroke-linecap="round" stroke-linejoin="round"/>
<path d="M40.1665 23.7793C38.9875 23.7793 38.0444 22.8362 38.0444 21.6573C38.0444 20.4784 38.9875 19.6531 40.1665 19.6531V16.8237H12.8157" stroke="#EF5C4E" stroke-width="1.2" stroke-miterlimit="10" stroke-linecap="round" stroke-linejoin="round"/>
<path d="M40.1664 32.5033C38.9874 32.5033 38.0443 31.5601 38.0443 30.4991C38.0443 29.3202 38.9874 28.3771 40.1664 28.3771" stroke="#EF5C4E" stroke-width="1.2" stroke-miterlimit="10" stroke-linecap="round" stroke-linejoin="round"/>
<path d="M18.4746 20.7141L19.8893 24.133L21.304 20.7141" stroke="#EF5C4E" stroke-width="1.2" stroke-miterlimit="10" stroke-linecap="round" stroke-linejoin="round"/>
<path d="M23.1902 20.7141V24.133" stroke="#EF5C4E" stroke-width="1.2" stroke-miterlimit="10" stroke-linecap="round" stroke-linejoin="round"/>
<path d="M25.0763 24.133V20.7141H27.0804C27.0804 20.7141 27.9057 20.832 27.9057 21.7751C27.9057 22.7183 27.0804 22.954 27.0804 22.954H25.0763" stroke="#EF5C4E" stroke-width="1.2" stroke-miterlimit="10" stroke-linecap="round" stroke-linejoin="round"/>
<path d="M26.2554 31.5601H19.6534V27.9055L21.4218 29.4381L22.9544 27.9055L24.3691 29.3202L26.2554 27.7876" stroke="#EF5C4E" stroke-width="1.2" stroke-miterlimit="10" stroke-linecap="round" stroke-linejoin="round"/>
<path d="M32.1498 34.6253V17.1774" stroke="#EF5C4E" stroke-width="1.2" stroke-linecap="round" stroke-linejoin="round" stroke-dasharray="0 2"/>
</svg>
