<svg width="35" height="29" viewBox="0 0 35 29" fill="none" xmlns="http://www.w3.org/2000/svg">
<mask id="mask0_1031_101" style="mask-type:alpha" maskUnits="userSpaceOnUse" x="0" y="0" width="35" height="29">
<path d="M16.9268 0.720431L16.3901 1.16419C16.0345 1.45833 16.0345 1.93523 16.3901 2.22941L29.9367 13.4329H1.41071C0.907781 13.4329 0.5 13.7701 0.5 14.1861V14.8138C0.5 15.2297 0.907781 15.567 1.41071 15.567H29.9367L16.3901 26.7705C16.0345 27.0646 16.0345 27.5415 16.3901 27.8356L16.9268 28.2794C17.2824 28.5735 17.859 28.5735 18.2147 28.2794L34.2321 15.0326C34.5876 14.7385 34.5876 14.2616 34.2321 13.9674L18.2147 0.720649C17.859 0.42645 17.2824 0.426232 16.9268 0.720431Z" fill="white"/>
</mask>
<g mask="url(#mask0_1031_101)">
<path d="M34.4988 -0.773315H0.498779V29.7723H34.4988V-0.773315Z" fill="#1D1D1D"/>
</g>
</svg>
