<svg width="21" height="18" viewBox="0 0 21 18" fill="none" xmlns="http://www.w3.org/2000/svg">
<mask id="mask0_1021_67" style="mask-type:alpha" maskUnits="userSpaceOnUse" x="0" y="0" width="21" height="18">
<path d="M10.1678 1.00695L9.85648 1.26436C9.65018 1.43498 9.65018 1.71162 9.85648 1.88226L17.7144 8.38101H1.16743C0.8757 8.38101 0.63916 8.57663 0.63916 8.81791V9.182C0.63916 9.42329 0.8757 9.61891 1.16743 9.61891H17.7144L9.85648 16.1177C9.65018 16.2883 9.65018 16.5649 9.85648 16.7355L10.1678 16.993C10.3741 17.1636 10.7085 17.1636 10.9148 16.993L20.206 9.30896C20.4122 9.13835 20.4122 8.86171 20.206 8.69107L10.9148 1.00708C10.7085 0.836426 10.3741 0.836299 10.1678 1.00695Z" fill="white"/>
</mask>
<g mask="url(#mask0_1021_67)">
<path d="M20.3606 0.140472H0.638428V17.8589H20.3606V0.140472Z" fill="white"/>
</g>
</svg>
