<svg width="35" height="28" viewBox="0 0 35 28" fill="none" xmlns="http://www.w3.org/2000/svg">
<path d="M16.4961 0.220431L15.9595 0.664193C15.6038 0.958326 15.6038 1.43523 15.9595 1.72941L29.506 12.9329H0.98005C0.477117 12.9329 0.0693359 13.2701 0.0693359 13.6861V14.3138C0.0693359 14.7297 0.477117 15.067 0.98005 15.067H29.506L15.9595 26.2705C15.6038 26.5646 15.6038 27.0415 15.9595 27.3356L16.4961 27.7794C16.8518 28.0735 17.4284 28.0735 17.784 27.7794L33.8014 14.5326C34.157 14.2385 34.157 13.7616 33.8014 13.4674L17.784 0.220649C17.4284 -0.0735496 16.8518 -0.0737676 16.4961 0.220431Z" fill="#1D1D1D"/>
</svg>
