<svg width="32" height="32" viewBox="0 0 32 32" fill="none" xmlns="http://www.w3.org/2000/svg">
<g id="Frame 26086285">
<g id="Group">
<path id="Vector" d="M16.1999 31.5C24.8708 31.5 31.8999 24.5604 31.8999 16C31.8999 7.43959 24.8708 0.5 16.1999 0.5C7.52907 0.5 0.499939 7.43959 0.499939 16C0.499939 24.5604 7.52907 31.5 16.1999 31.5Z" fill="#FD50A7"/>
<g id="Group_2">
<g id="Group_3">
<path id="Vector_2" d="M21.0594 10.1201C20.4613 10.1201 19.9879 10.5876 19.9879 11.1781C19.9879 11.7685 20.4613 12.236 21.0594 12.236C21.6575 12.236 22.131 11.7685 22.131 11.1781C22.131 10.6122 21.6575 10.1201 21.0594 10.1201Z" fill="white"/>
<path id="Vector_3" d="M16.2746 11.4978C13.7826 11.4978 11.7391 13.5153 11.7391 15.9756C11.7391 18.4359 13.7826 20.4534 16.2746 20.4534C18.7667 20.4534 20.8102 18.4359 20.8102 15.9756C20.8102 13.5153 18.7667 11.4978 16.2746 11.4978ZM16.2746 18.8295C14.6797 18.8295 13.3838 17.5502 13.3838 15.9756C13.3838 14.401 14.6797 13.1216 16.2746 13.1216C17.8696 13.1216 19.1654 14.401 19.1654 15.9756C19.1654 17.5502 17.8696 18.8295 16.2746 18.8295Z" fill="white"/>
<path id="Vector_4" d="M19.8634 25.0541H12.5118C9.47149 25.0541 6.97943 22.6184 6.97943 19.5922V12.3343C7.00435 9.33269 9.47149 6.89697 12.5118 6.89697H19.8634C22.9037 6.89697 25.3958 9.33269 25.3958 12.3589V19.6168C25.3958 22.5938 22.9037 25.0541 19.8634 25.0541ZM12.5118 8.59459C10.4185 8.59459 8.72388 10.2676 8.72388 12.3343V19.5922C8.72388 21.6589 10.4185 23.3319 12.5118 23.3319H19.8634C21.9567 23.3319 23.6513 21.6589 23.6513 19.5922V12.3343C23.6513 10.2676 21.9567 8.59459 19.8634 8.59459H12.5118Z" fill="white"/>
</g>
</g>
</g>
</g>
</svg>
