<svg width="53" height="52" viewBox="0 0 53 52" fill="none" xmlns="http://www.w3.org/2000/svg">
<path d="M26.8244 51C40.6267 51 51.8154 39.8157 51.8154 26.0192C51.8154 12.2227 40.6267 1.03845 26.8244 1.03845C13.0222 1.03845 1.83337 12.2227 1.83337 26.0192C1.83337 39.8157 13.0222 51 26.8244 51Z" fill="white" stroke="#EE5D52" stroke-width="2" stroke-miterlimit="10" stroke-linecap="round" stroke-linejoin="round"/>
<path d="M26.8334 27.3196C28.826 27.3196 30.4413 25.72 30.4413 23.7468C30.4413 21.7736 28.826 20.174 26.8334 20.174C24.8409 20.174 23.2256 21.7736 23.2256 23.7468C23.2256 25.72 24.8409 27.3196 26.8334 27.3196Z" stroke="#EF5C4E" stroke-width="1.2" stroke-miterlimit="10" stroke-linecap="round" stroke-linejoin="round"/>
<path d="M26.8334 37.106C33.071 37.106 38.1275 32.0985 38.1275 25.9215C38.1275 19.7445 33.071 14.7371 26.8334 14.7371C20.5959 14.7371 15.5393 19.7445 15.5393 25.9215C15.5393 32.0985 20.5959 37.106 26.8334 37.106Z" stroke="#EF5C4E" stroke-width="1.2" stroke-linecap="round" stroke-linejoin="round" stroke-dasharray="0 2"/>
<path d="M26.8334 41.4555C35.4967 41.4555 42.5196 34.5007 42.5196 25.9216C42.5196 17.3424 35.4967 10.3876 26.8334 10.3876C18.1701 10.3876 11.1471 17.3424 11.1471 25.9216C11.1471 34.5007 18.1701 41.4555 26.8334 41.4555Z" stroke="#EF5C4E" stroke-width="1.2" stroke-linecap="round" stroke-linejoin="round" stroke-dasharray="0 2"/>
<path d="M29.3432 26.543L35.304 41.4556L26.8334 37.1061L18.5197 41.4556L24.4804 26.543" stroke="#EF5C4E" stroke-width="1.2" stroke-miterlimit="10" stroke-linecap="round" stroke-linejoin="round"/>
<path d="M26.8334 27.475V37.106" stroke="#EF5C4E" stroke-width="1.2" stroke-miterlimit="10" stroke-linecap="round" stroke-linejoin="round"/>
<path d="M22.1274 32.2905L26.8333 36.0187L31.5392 32.2905" stroke="#EF5C4E" stroke-width="1.2" stroke-miterlimit="10" stroke-linecap="round" stroke-linejoin="round"/>
</svg>
