<svg width="53" height="52" viewBox="0 0 53 52" fill="none" xmlns="http://www.w3.org/2000/svg">
<path d="M26.491 50.9615C40.2933 50.9615 51.4821 39.7773 51.4821 25.9808C51.4821 12.1842 40.2933 1 26.491 1C12.6888 1 1.5 12.1842 1.5 25.9808C1.5 39.7773 12.6888 50.9615 26.491 50.9615Z" fill="white" stroke="#EE5D52" stroke-width="2" stroke-miterlimit="10" stroke-linecap="round" stroke-linejoin="round"/>
<path d="M32.7614 19.9166C33.4377 19.9166 33.9859 19.3719 33.9859 18.6999C33.9859 18.028 33.4377 17.4833 32.7614 17.4833C32.0851 17.4833 31.5369 18.028 31.5369 18.6999C31.5369 19.3719 32.0851 19.9166 32.7614 19.9166Z" stroke="#EF5C4E" stroke-width="1.2" stroke-miterlimit="10" stroke-linecap="round" stroke-linejoin="round"/>
<path d="M32.7615 22.8062C35.044 22.8062 36.8943 20.9677 36.8943 18.6999C36.8943 16.4321 35.044 14.5936 32.7615 14.5936C30.4791 14.5936 28.6288 16.4321 28.6288 18.6999C28.6288 20.9677 30.4791 22.8062 32.7615 22.8062Z" stroke="#EF5C4E" stroke-width="1.2" stroke-miterlimit="10" stroke-linecap="round" stroke-linejoin="round"/>
<path d="M18.2204 27.2167C18.8967 27.2167 19.4449 26.6719 19.4449 26C19.4449 25.328 18.8967 24.7833 18.2204 24.7833C17.5441 24.7833 16.9958 25.328 16.9958 26C16.9958 26.6719 17.5441 27.2167 18.2204 27.2167Z" stroke="#EF5C4E" stroke-width="1.2" stroke-miterlimit="10" stroke-linecap="round" stroke-linejoin="round"/>
<path d="M18.2204 30.1062C20.5029 30.1062 22.3532 28.2678 22.3532 25.9999C22.3532 23.7321 20.5029 21.8937 18.2204 21.8937C15.9379 21.8937 14.0876 23.7321 14.0876 25.9999C14.0876 28.2678 15.9379 30.1062 18.2204 30.1062Z" stroke="#EF5C4E" stroke-width="1.2" stroke-miterlimit="10" stroke-linecap="round" stroke-linejoin="round"/>
<path d="M29.088 20.3728L21.8939 24.0228" stroke="#EF5C4E" stroke-width="1.2" stroke-linecap="round" stroke-linejoin="round" stroke-dasharray="0 2"/>
<path d="M32.7614 34.5166C33.4377 34.5166 33.9859 33.9719 33.9859 33.2999C33.9859 32.628 33.4377 32.0833 32.7614 32.0833C32.0851 32.0833 31.5369 32.628 31.5369 33.2999C31.5369 33.9719 32.0851 34.5166 32.7614 34.5166Z" stroke="#EF5C4E" stroke-width="1.2" stroke-miterlimit="10" stroke-linecap="round" stroke-linejoin="round"/>
<path d="M32.7615 37.4061C35.044 37.4061 36.8943 35.5677 36.8943 33.2999C36.8943 31.032 35.044 29.1936 32.7615 29.1936C30.4791 29.1936 28.6288 31.032 28.6288 33.2999C28.6288 35.5677 30.4791 37.4061 32.7615 37.4061Z" stroke="#EF5C4E" stroke-width="1.2" stroke-miterlimit="10" stroke-linecap="round" stroke-linejoin="round"/>
<path d="M21.8939 27.6727L29.088 31.3227" stroke="#EF5C4E" stroke-width="1.2" stroke-linecap="round" stroke-linejoin="round" stroke-dasharray="0 2"/>
</svg>
