<svg width="53" height="52" viewBox="0 0 53 52" fill="none" xmlns="http://www.w3.org/2000/svg">
<path d="M26.1577 51C39.9599 51 51.1487 39.8157 51.1487 26.0192C51.1487 12.2227 39.9599 1.03845 26.1577 1.03845C12.3555 1.03845 1.16663 12.2227 1.16663 26.0192C1.16663 39.8157 12.3555 51 26.1577 51Z" fill="white" stroke="#EF5C4E" stroke-width="2" stroke-miterlimit="10" stroke-linecap="round" stroke-linejoin="round"/>
<path d="M27.7313 26.9968H26.0527" stroke="#EF5C4E" stroke-width="1.2" stroke-miterlimit="10" stroke-linecap="round" stroke-linejoin="round"/>
<path d="M24.1643 26.9969H26.0527V33.7113H22.4857C22.2759 32.872 21.6464 32.2425 21.6464 32.2425C18.7089 30.5639 16.8204 27.6264 16.8204 24.2692C16.8204 19.2334 21.0169 15.0369 26.0527 15.0369C31.0885 15.0369 35.285 19.2334 35.285 24.2692C35.285 27.8362 33.3966 30.7737 30.4591 32.2425C30.4591 32.2425 29.4099 32.872 29.4099 34.1309C29.4099 35.1801 30.0394 37.698 28.3608 39.3766C26.6822 41.0552 24.584 40.006 23.5348 39.1667" stroke="#EF5C4E" stroke-width="1.2" stroke-miterlimit="10" stroke-linecap="round" stroke-linejoin="round"/>
<path d="M36.9635 37.2782L34.6554 35.1799" stroke="#EF5C4E" stroke-width="1.2" stroke-linecap="round" stroke-linejoin="round" stroke-dasharray="0 2"/>
<path d="M41.3699 24.6887H38.2225" stroke="#EF5C4E" stroke-width="1.2" stroke-linecap="round" stroke-linejoin="round" stroke-dasharray="0 2"/>
<path d="M36.7536 12.3091L34.6554 14.4073" stroke="#EF5C4E" stroke-width="1.2" stroke-linecap="round" stroke-linejoin="round" stroke-dasharray="0 2"/>
<path d="M15.3519 37.2782L17.66 35.1799" stroke="#EF5C4E" stroke-width="1.2" stroke-linecap="round" stroke-linejoin="round" stroke-dasharray="0 2"/>
<path d="M10.9454 24.6887H14.0928" stroke="#EF5C4E" stroke-width="1.2" stroke-linecap="round" stroke-linejoin="round" stroke-dasharray="0 2"/>
<path d="M15.3519 12.3091L17.4502 14.4073" stroke="#EF5C4E" stroke-width="1.2" stroke-linecap="round" stroke-linejoin="round" stroke-dasharray="0 2"/>
</svg>
