<svg width="53" height="52" viewBox="0 0 53 52" fill="none" xmlns="http://www.w3.org/2000/svg">
<path d="M26.491 50.9615C40.2933 50.9615 51.4821 39.7773 51.4821 25.9808C51.4821 12.1842 40.2933 1 26.491 1C12.6888 1 1.5 12.1842 1.5 25.9808C1.5 39.7773 12.6888 50.9615 26.491 50.9615Z" fill="white" stroke="#EE5D52" stroke-width="2" stroke-miterlimit="10" stroke-linecap="round" stroke-linejoin="round"/>
<path d="M25.936 38.1909C26.121 38.1909 26.306 38.1909 26.491 38.1909C33.3361 38.1909 38.7011 32.6408 38.7011 25.9808C38.7011 19.3207 33.1511 13.7706 26.491 13.7706C19.8309 13.7706 14.2809 19.1357 14.2809 25.9808C14.2809 29.6808 15.9459 33.0108 18.5359 35.2309" stroke="#EF5C4E" stroke-width="1.2" stroke-miterlimit="10" stroke-linecap="round" stroke-linejoin="round"/>
<path d="M30.0059 33.3808C30.0059 33.3808 35.3709 21.3557 26.4908 13.7706" stroke="#EF5C4E" stroke-width="1.2" stroke-linecap="round" stroke-linejoin="round" stroke-dasharray="0 2"/>
<path d="M22.9759 18.5807C22.9759 18.5807 17.6108 30.6058 26.4909 38.1909" stroke="#EF5C4E" stroke-width="1.2" stroke-linecap="round" stroke-linejoin="round" stroke-dasharray="0 2"/>
<path d="M14.2808 25.9807H34.446" stroke="#EF5C4E" stroke-width="1.2" stroke-miterlimit="10" stroke-linecap="round" stroke-linejoin="round"/>
</svg>
