<svg width="33" height="32" viewBox="0 0 33 32" fill="none" xmlns="http://www.w3.org/2000/svg">
<g id="Frame 26086288">
<g id="Group">
<path id="Vector" d="M16.4 31.5C25.0708 31.5 32.0999 24.5604 32.0999 16C32.0999 7.43959 25.0708 0.5 16.4 0.5C7.72908 0.5 0.699951 7.43959 0.699951 16C0.699951 24.5604 7.72908 31.5 16.4 31.5Z" fill="#6CCEEF"/>
<path id="Vector_2" d="M25.0724 10.6859C24.5241 10.932 23.926 11.0796 23.3528 11.178C23.627 11.1288 24.0506 10.6367 24.2001 10.4399C24.4493 10.1447 24.6487 9.77562 24.7733 9.40657C24.7982 9.38197 24.7982 9.33276 24.7733 9.30816C24.7235 9.28356 24.7235 9.30816 24.6736 9.30816C24.0257 9.6526 23.3528 9.89864 22.6301 10.0955C22.5803 10.1201 22.5305 10.0955 22.4806 10.0463C22.4308 9.97245 22.356 9.92324 22.3062 9.87403C22.0071 9.628 21.6832 9.43118 21.3093 9.28356C20.8358 9.08673 20.3125 9.01292 19.7892 9.03753C19.2908 9.06213 18.7924 9.20975 18.3438 9.43118C17.8952 9.6526 17.4965 9.97245 17.1725 10.3661C16.8485 10.7597 16.5993 11.2518 16.4747 11.7439C16.3501 12.2359 16.3751 12.7034 16.4498 13.1955C16.4498 13.2693 16.4498 13.2939 16.3751 13.2693C13.559 12.851 11.2165 11.8669 9.32252 9.72641C9.24776 9.628 9.19791 9.628 9.12315 9.72641C8.30077 10.9566 8.6995 12.9248 9.72125 13.909C9.87077 14.032 9.99538 14.1796 10.1449 14.278C10.0951 14.278 9.39728 14.2042 8.77426 13.909C8.6995 13.8597 8.64966 13.8843 8.64966 13.9828C8.64966 14.1058 8.64966 14.2288 8.67458 14.3764C8.82411 15.6312 9.69633 16.7629 10.8925 17.2304C11.042 17.2796 11.1916 17.3534 11.3411 17.378C11.067 17.4272 10.7928 17.4764 9.99537 17.4272C9.89569 17.4026 9.87077 17.4518 9.89569 17.5502C10.4938 19.1248 11.7398 19.5923 12.7117 19.8629C12.8363 19.8875 12.9609 19.8875 13.0855 19.9121C13.0855 19.9121 13.0606 19.9121 13.0606 19.9367C12.7366 20.4042 11.6651 20.7732 11.1417 20.9455C10.2197 21.2653 9.22284 21.4129 8.22601 21.3145C8.07649 21.2899 8.02664 21.2899 8.00172 21.3145C7.95188 21.3391 8.00172 21.3883 8.05157 21.4129C8.25093 21.5359 8.4503 21.659 8.64966 21.7574C9.27268 22.0772 9.92061 22.3478 10.5935 22.5201C14.0824 23.4796 18.0198 22.7661 20.6365 20.2074C22.7049 18.1899 23.4276 15.4097 23.4276 12.605C23.4276 12.5066 23.5522 12.4328 23.627 12.3836C24.1752 11.9899 24.5989 11.5224 24.9976 10.9812C25.0973 10.8582 25.0973 10.7597 25.0973 10.7105V10.6859C25.1222 10.6367 25.1222 10.6613 25.0724 10.6859Z" fill="white"/>
</g>
</g>
</svg>
