<svg width="33" height="32" viewBox="0 0 33 32" fill="none" xmlns="http://www.w3.org/2000/svg">
<g id="Frame 26086286">
<g id="Group">
<path id="Vector" d="M16.5999 31.5C25.2708 31.5 32.2999 24.5604 32.2999 16C32.2999 7.43959 25.2708 0.5 16.5999 0.5C7.92903 0.5 0.899902 7.43959 0.899902 16C0.899902 24.5604 7.92903 31.5 16.5999 31.5Z" fill="#BF75FF"/>
<g id="Group_2">
<g id="Group_3">
<path id="Vector_2" d="M17.4471 13.1952C17.472 14.0071 17.472 14.819 17.4471 15.6309C17.4222 16.1476 17.0733 16.5167 16.5998 16.4921C16.1263 16.4921 15.7774 16.1476 15.7525 15.6063C15.7275 15.1881 15.7525 14.7698 15.7525 14.3516C15.7525 13.9579 15.7275 13.5889 15.7525 13.1952C15.7774 12.654 16.1014 12.3095 16.5499 12.2849C17.0483 12.2357 17.4222 12.6294 17.4471 13.1952Z" fill="white"/>
<path id="Vector_3" d="M20.0137 15.5571C19.9888 14.7944 19.9888 14.0071 20.0137 13.2444C20.0387 12.654 20.3876 12.2849 20.886 12.2849C21.3844 12.3095 21.7084 12.6786 21.7084 13.2936C21.7084 13.6873 21.7084 14.0563 21.7084 14.45C21.7084 14.7944 21.7084 15.1635 21.7084 15.5079C21.6834 16.123 21.3844 16.4921 20.886 16.5167C20.3876 16.5167 20.0387 16.1476 20.0137 15.5571Z" fill="white"/>
<path id="Vector_4" d="M25.1726 9.40645C25.1975 8.39772 24.8735 8.00407 23.7272 8.02867C21.0856 8.07787 18.444 8.05327 15.8024 8.05327C14.4816 8.05327 13.1608 8.07787 11.84 8.05327C11.2419 8.05327 10.7934 8.17629 10.4195 8.71756C9.77161 9.67708 9.02399 10.5628 8.35113 11.4731C8.15176 11.7437 8.02716 12.0636 8.02716 12.4326C8.05208 15.7049 8.02716 18.9771 8.05208 22.2739C8.05208 22.9874 8.35113 23.258 9.09875 23.2826C10.1205 23.3072 11.1672 23.2826 12.3384 23.2826C12.3384 23.8977 12.3135 24.4144 12.3384 24.9557C12.3634 25.4723 12.6873 25.7922 13.1857 25.8168C13.5097 25.8414 13.8337 25.7922 14.1576 25.8168C14.8305 25.8906 15.3538 25.5953 15.7027 25.0541C16.0018 24.6112 16.4005 24.2422 16.7743 23.8977C17.2478 23.4549 17.7711 23.1596 18.4938 23.258C19.0919 23.3318 19.7149 23.258 20.313 23.2826C20.8114 23.3072 21.2351 23.1104 21.5341 22.7414C22.4811 21.5358 23.6275 20.5517 24.724 19.4691C25.1227 19.0755 25.2473 18.6818 25.2473 18.1652C25.1476 15.262 25.1227 12.3342 25.1726 9.40645ZM23.4281 17.5009C22.7553 18.1406 21.9827 18.8541 21.26 19.5676C21.0108 19.8136 20.7367 19.8874 20.4127 19.8874C19.366 19.8874 18.3443 19.912 17.2976 19.8628C16.8241 19.8382 16.5002 19.9858 16.1762 20.3303C15.5283 21.0191 14.8305 21.6834 14.033 22.4461V19.9366H11.6157C11.516 19.8382 11.4911 19.8136 11.4662 19.789C11.4413 19.7644 11.4164 19.7398 11.4164 19.7152C11.4164 16.443 11.4164 13.1707 11.4164 9.89851C12.2387 9.67708 22.6307 9.70168 23.4032 9.89851V17.5009H23.4281Z" fill="white"/>
<path id="Vector_5" d="M17.4471 13.1952C17.472 14.0071 17.472 14.819 17.4471 15.6309C17.4222 16.1476 17.0733 16.5167 16.5998 16.4921C16.1263 16.4921 15.7774 16.1476 15.7525 15.6063C15.7275 15.1881 15.7525 14.7698 15.7525 14.3516C15.7525 13.9579 15.7275 13.5889 15.7525 13.1952C15.7774 12.654 16.1014 12.3095 16.5499 12.2849C17.0483 12.2357 17.4222 12.6294 17.4471 13.1952Z" fill="white"/>
<path id="Vector_6" d="M21.7332 14.45C21.7332 14.7944 21.7332 15.1635 21.7332 15.5079C21.7083 16.123 21.4092 16.4921 20.9108 16.5167C20.4124 16.5413 20.0386 16.1722 20.0386 15.5571C20.0137 14.7944 20.0137 14.0071 20.0386 13.2444C20.0635 12.654 20.4124 12.2849 20.9108 12.2849C21.4092 12.3095 21.7332 12.6786 21.7332 13.2936C21.7332 13.6627 21.7332 14.0563 21.7332 14.45Z" fill="white"/>
<path id="Vector_7" d="M17.4471 15.6309C17.4222 16.1475 17.0733 16.5166 16.5998 16.492C16.1263 16.492 15.7774 16.1475 15.7525 15.6063C15.7275 15.188 15.7525 14.7698 15.7525 14.3515C15.7525 13.9579 15.7275 13.5888 15.7525 13.1952C15.7774 12.6539 16.1014 12.3095 16.5499 12.2848C17.0483 12.2602 17.4471 12.6293 17.4471 13.2198C17.4471 14.0071 17.472 14.819 17.4471 15.6309Z" fill="white"/>
<path id="Vector_8" d="M21.7332 14.45C21.7332 14.7944 21.7332 15.1635 21.7332 15.5079C21.7083 16.123 21.4092 16.4921 20.9108 16.5167C20.4124 16.5413 20.0386 16.1722 20.0386 15.5571C20.0137 14.7944 20.0137 14.0071 20.0386 13.2444C20.0635 12.654 20.4124 12.2849 20.9108 12.2849C21.4092 12.3095 21.7332 12.6786 21.7332 13.2936C21.7332 13.6627 21.7332 14.0563 21.7332 14.45Z" fill="white"/>
</g>
</g>
</g>
</g>
</svg>
