<svg width="32" height="32" viewBox="0 0 32 32" fill="none" xmlns="http://www.w3.org/2000/svg">
<g id="Frame 26086287">
<g id="Group">
<path id="Vector" d="M15.9999 31.5C24.6708 31.5 31.6999 24.5604 31.6999 16C31.6999 7.43959 24.6708 0.5 15.9999 0.5C7.32906 0.5 0.299927 7.43959 0.299927 16C0.299927 24.5604 7.32906 31.5 15.9999 31.5Z" fill="#FF5C5C"/>
<path id="Vector_2" d="M24.3982 13.7363C24.3982 11.6697 22.7036 10.0212 20.6352 10.0212H10.9909C8.89759 10.0212 7.22791 11.6943 7.22791 13.7363V18.1649C7.22791 20.2316 8.92251 21.88 10.9909 21.88H20.6352C22.7285 21.88 24.3982 20.207 24.3982 18.1649V13.7363ZM18.7163 16.295L14.405 18.4109C14.2306 18.5093 13.6574 18.3863 13.6574 18.1895V13.8347C13.6574 13.6379 14.2306 13.5149 14.405 13.6133L18.5419 15.8276C18.7163 15.9506 18.8908 16.1966 18.7163 16.295Z" fill="white"/>
</g>
</g>
</svg>
