<svg width="32" height="32" viewBox="0 0 32 32" fill="none" xmlns="http://www.w3.org/2000/svg">
<g id="Frame 26086280">
<g id="Group">
<g id="Group_2">
<ellipse id="Ellipse 1" cx="15.6987" cy="15.9" rx="15.5987" ry="15.4" fill="black"/>
<path id="Vector" d="M31.5 16C31.5 7.4381 24.4668 0.5 15.7875 0.5C7.10824 0.5 0.0999756 7.4381 0.0999756 16C0.0999756 23.7254 5.83627 30.1468 13.3433 31.3032V20.4778H9.35287V16H13.3433V12.5802C13.3433 8.69286 15.6877 6.55238 19.2792 6.55238C21.0001 6.55238 22.7958 6.84762 22.7958 6.84762V10.6611H20.8255C18.8801 10.6611 18.2566 11.8667 18.2566 13.0722V16H22.6212L21.9228 20.4778H18.2566V31.3032C25.7637 30.1222 31.5 23.7254 31.5 16Z" fill="black"/>
<path id="Vector_2" d="M18.9968 17.3952L19.4581 14.4375H16.5752V12.5198C16.5752 11.7073 16.9705 10.9272 18.272 10.9272H19.5734V8.39203C19.5734 8.39203 18.3873 8.19702 17.2506 8.19702C14.8783 8.19702 13.3298 9.61087 13.3298 12.1785V14.4375H10.694V17.3952H13.3298V24.5457C13.857 24.6269 14.4006 24.6757 14.9442 24.6757C15.4879 24.6757 16.0315 24.6269 16.5587 24.5457V17.3952H18.9968Z" fill="white"/>
</g>
</g>
</g>
</svg>
