<svg width="32" height="32" viewBox="0 0 32 32" fill="none" xmlns="http://www.w3.org/2000/svg">
<g id="Frame 26086284">
<g id="Group">
<path id="Vector" d="M16.2 31.5C24.8709 31.5 31.9 24.5604 31.9 16C31.9 7.43959 24.8709 0.5 16.2 0.5C7.52913 0.5 0.5 7.43959 0.5 16C0.5 24.5604 7.52913 31.5 16.2 31.5Z" fill="black"/>
<g id="Group_2">
<g id="Group_3">
<path id="Vector_2" d="M21.0595 10.1201C20.4614 10.1201 19.9879 10.5876 19.9879 11.1781C19.9879 11.7685 20.4614 12.236 21.0595 12.236C21.6576 12.236 22.1311 11.7685 22.1311 11.1781C22.1311 10.6122 21.6576 10.1201 21.0595 10.1201Z" fill="white"/>
<path id="Vector_3" d="M16.2747 11.4978C13.7826 11.4978 11.7391 13.5153 11.7391 15.9756C11.7391 18.4359 13.7826 20.4534 16.2747 20.4534C18.7668 20.4534 20.8102 18.4359 20.8102 15.9756C20.8102 13.5153 18.7668 11.4978 16.2747 11.4978ZM16.2747 18.8295C14.6798 18.8295 13.3839 17.5502 13.3839 15.9756C13.3839 14.401 14.6798 13.1216 16.2747 13.1216C17.8696 13.1216 19.1655 14.401 19.1655 15.9756C19.1655 17.5502 17.8696 18.8295 16.2747 18.8295Z" fill="white"/>
<path id="Vector_4" d="M19.8635 25.0541H12.5119C9.47156 25.0541 6.97949 22.6184 6.97949 19.5922V12.3343C7.00441 9.33269 9.47156 6.89697 12.5119 6.89697H19.8635C22.9038 6.89697 25.3958 9.33269 25.3958 12.3589V19.6168C25.3958 22.5938 22.9038 25.0541 19.8635 25.0541ZM12.5119 8.59459C10.4185 8.59459 8.72394 10.2676 8.72394 12.3343V19.5922C8.72394 21.6589 10.4185 23.3319 12.5119 23.3319H19.8635C21.9568 23.3319 23.6514 21.6589 23.6514 19.5922V12.3343C23.6514 10.2676 21.9568 8.59459 19.8635 8.59459H12.5119Z" fill="white"/>
</g>
</g>
</g>
</g>
</svg>
