<svg width="69" height="28" viewBox="0 0 69 28" fill="none" xmlns="http://www.w3.org/2000/svg">
<g id="CIENCIA + DISE&#195;&#145;O">
<path d="M3.9673 10.1985C3.26521 10.1985 2.66936 10.0525 2.17974 9.76058C1.69013 9.46395 1.2952 9.07079 0.994969 8.58112C0.694734 8.08673 0.475331 7.5382 0.336761 6.93552C0.198191 6.32813 0.128906 5.71604 0.128906 5.09923C0.128906 4.50597 0.198191 3.91035 0.336761 3.31238C0.47995 2.7097 0.703972 2.15882 1.00883 1.65972C1.31368 1.16063 1.7086 0.760411 2.1936 0.459072C2.68321 0.153024 3.27445 0 3.9673 0C4.51234 0 4.98348 0.101231 5.38071 0.303694C5.78256 0.501448 6.11513 0.758058 6.37842 1.07352C6.6417 1.38899 6.84032 1.71858 6.97427 2.06229L5.50542 2.78268C5.32066 2.41543 5.1105 2.12586 4.87493 1.91398C4.64398 1.7021 4.34144 1.59616 3.9673 1.59616C3.57468 1.59616 3.24211 1.7021 2.96959 1.91398C2.69707 2.12586 2.47536 2.40601 2.30446 2.75443C2.13817 3.10286 2.01808 3.48189 1.94417 3.89152C1.87027 4.30115 1.83332 4.70372 1.83332 5.09923C1.83332 5.51828 1.87489 5.93498 1.95803 6.34932C2.04579 6.76366 2.17512 7.14034 2.34603 7.47934C2.52155 7.81835 2.74326 8.09144 3.01116 8.29861C3.28368 8.50107 3.6024 8.60231 3.9673 8.60231C4.34144 8.60231 4.65091 8.4846 4.89572 8.24917C5.14052 8.00904 5.34838 7.703 5.51928 7.33103L7.01584 7.91017C6.84032 8.34805 6.61398 8.7412 6.33684 9.08963C6.06432 9.43334 5.73176 9.70408 5.33914 9.90183C4.94652 10.0996 4.48924 10.1985 3.9673 10.1985Z" fill="white"/>
<path d="M13.0327 10.0431V0.155378H14.6817V10.0431H13.0327ZM11.0096 10.0431V8.55993H16.7187V10.0431H11.0096ZM11.0096 1.63853V0.155378H16.7187V1.63853H11.0096Z" fill="white"/>
<path d="M20.7124 10.0431V0.155378H26.9342V1.75154H22.3614V4.13871H25.3406V5.73487H22.3614V8.44693H27.2252V10.0431H20.7124Z" fill="white"/>
<path d="M30.7755 10.0431V0.155378H32.3414L35.3622 6.25751C35.4038 6.33284 35.4615 6.44114 35.5354 6.58239C35.6093 6.72364 35.667 6.84135 35.7086 6.93552C35.704 6.8131 35.6971 6.69068 35.6878 6.56826C35.6832 6.44584 35.6809 6.34226 35.6809 6.25751V0.155378H37.2052V10.0431H35.7086L32.6324 3.91271C32.5908 3.83266 32.533 3.72202 32.4591 3.58076C32.3852 3.43951 32.3229 3.32415 32.2721 3.23469C32.2952 3.33828 32.3067 3.45364 32.3067 3.58076C32.3113 3.70789 32.3136 3.81854 32.3136 3.91271V10.0431H30.7755Z" fill="white"/>
<path d="M44.2197 10.1985C43.5176 10.1985 42.9218 10.0525 42.4322 9.76058C41.9426 9.46395 41.5476 9.07079 41.2474 8.58112C40.9472 8.08673 40.7278 7.5382 40.5892 6.93552C40.4506 6.32813 40.3813 5.71604 40.3813 5.09923C40.3813 4.50597 40.4506 3.91035 40.5892 3.31238C40.7324 2.7097 40.9564 2.15882 41.2613 1.65972C41.5661 1.16063 41.961 0.760411 42.446 0.459072C42.9356 0.153024 43.5269 0 44.2197 0C44.7648 0 45.2359 0.101231 45.6331 0.303694C46.035 0.501448 46.3676 0.758058 46.6308 1.07352C46.8941 1.38899 47.0927 1.71858 47.2267 2.06229L45.7579 2.78268C45.5731 2.41543 45.3629 2.12586 45.1274 1.91398C44.8964 1.7021 44.5939 1.59616 44.2197 1.59616C43.8271 1.59616 43.4945 1.7021 43.222 1.91398C42.9495 2.12586 42.7278 2.40601 42.5569 2.75443C42.3906 3.10286 42.2705 3.48189 42.1966 3.89152C42.1227 4.30115 42.0857 4.70372 42.0857 5.09923C42.0857 5.51828 42.1273 5.93498 42.2105 6.34932C42.2982 6.76366 42.4276 7.14034 42.5985 7.47934C42.774 7.81835 42.9957 8.09144 43.2636 8.29861C43.5361 8.50107 43.8548 8.60231 44.2197 8.60231C44.5939 8.60231 44.9033 8.4846 45.1481 8.24917C45.393 8.00904 45.6008 7.703 45.7717 7.33103L47.2683 7.91017C47.0927 8.34805 46.8664 8.7412 46.5893 9.08963C46.3168 9.43334 45.9842 9.70408 45.5916 9.90183C45.199 10.0996 44.7417 10.1985 44.2197 10.1985Z" fill="white"/>
<path d="M53.2851 10.0431V0.155378H54.9341V10.0431H53.2851ZM51.262 10.0431V8.55993H56.9711V10.0431H51.262ZM51.262 1.63853V0.155378H56.9711V1.63853H51.262Z" fill="white"/>
<path d="M60.2304 10.0431L63.4037 0.155378H64.9557L68.1289 10.0431H66.3552L64.4152 3.4042C64.3921 3.32886 64.3644 3.22763 64.3321 3.1005C64.3044 2.97338 64.2767 2.83918 64.2489 2.69793C64.2212 2.55668 64.1981 2.42484 64.1797 2.30242C64.1566 2.42484 64.1312 2.55668 64.1034 2.69793C64.0757 2.83918 64.048 2.97338 64.0203 3.1005C63.9926 3.22763 63.9672 3.32886 63.9441 3.4042L62.0041 10.0431H60.2304ZM62.2813 7.86779L62.7247 6.34226H65.6346L66.0781 7.86779H62.2813Z" fill="white"/>
<path d="M3.3007 26.305V23.7765H0.848011V22.1945H3.3007V19.6661H4.90811V22.1945H7.3608V23.7765H4.90811V26.305H3.3007Z" fill="white"/>
<path d="M17.9673 27.8305V17.9428H20.4061C21.219 17.9428 21.9073 18.084 22.4708 18.3665C23.0389 18.6443 23.4985 19.021 23.8496 19.4966C24.2052 19.9674 24.4639 20.4971 24.6255 21.0857C24.7872 21.6695 24.868 22.2698 24.868 22.8866C24.868 23.4517 24.7918 24.0237 24.6394 24.6029C24.487 25.182 24.2352 25.7164 23.8842 26.2061C23.5378 26.6958 23.0759 27.0889 22.4985 27.3856C21.9211 27.6822 21.2052 27.8305 20.3507 27.8305H17.9673ZM19.6162 26.2485H20.5169C21.0112 26.2485 21.4269 26.1496 21.7641 25.9518C22.1013 25.7494 22.3715 25.4833 22.5747 25.1538C22.7779 24.8242 22.9234 24.4616 23.0112 24.0661C23.1036 23.6706 23.1498 23.2774 23.1498 22.8866C23.1498 22.4676 23.1013 22.0603 23.0043 21.6648C22.9119 21.2646 22.7664 20.9044 22.5678 20.5842C22.3692 20.2593 22.1128 20.0027 21.7987 19.8144C21.4846 19.6213 21.1082 19.5248 20.6694 19.5248H19.6162V26.2485Z" fill="white"/>
<path d="M28.8895 27.8305V17.9428H30.5385V27.8305H28.8895ZM26.8664 27.8305V26.3473H32.5755V27.8305H26.8664ZM26.8664 19.4259V17.9428H32.5755V19.4259H26.8664Z" fill="white"/>
<path d="M38.3706 28C37.844 28 37.3498 27.8964 36.8879 27.6892C36.4306 27.4774 36.0311 27.1807 35.6893 26.7994C35.3475 26.418 35.0911 25.9707 34.9202 25.4574L36.4168 24.8924C36.6246 25.3444 36.9156 25.7117 37.2898 25.9942C37.6685 26.2767 38.075 26.418 38.5092 26.418C38.9249 26.418 39.2644 26.3097 39.5277 26.0931C39.791 25.8765 39.9226 25.561 39.9226 25.1467C39.9226 24.8783 39.8302 24.6405 39.6455 24.4334C39.4607 24.2215 39.2159 24.0284 38.911 23.8542C38.6108 23.68 38.2829 23.5129 37.9272 23.3528C37.6177 23.2162 37.3059 23.0632 36.9918 22.8937C36.6824 22.7242 36.396 22.5241 36.1327 22.2934C35.874 22.0627 35.6639 21.7919 35.5022 21.4812C35.3452 21.1704 35.2666 20.8055 35.2666 20.3865C35.2666 19.9109 35.389 19.4754 35.6339 19.0799C35.8787 18.6844 36.2251 18.3689 36.6731 18.1335C37.1212 17.8934 37.65 17.7733 38.2598 17.7733C38.9896 17.7733 39.6154 17.9734 40.1374 18.3736C40.6639 18.7738 41.0127 19.2753 41.1836 19.878L39.7009 20.3865C39.5623 20.0945 39.3637 19.8497 39.105 19.6519C38.8464 19.4542 38.5323 19.3553 38.1628 19.3553C37.8163 19.3553 37.523 19.4448 37.2828 19.6237C37.0473 19.8026 36.9295 20.0475 36.9295 20.3582C36.9295 20.5748 36.9965 20.7631 37.1304 20.9232C37.269 21.0833 37.4699 21.2387 37.7332 21.3894C38.0011 21.54 38.329 21.7095 38.717 21.8979C39.0311 22.0485 39.3545 22.218 39.687 22.4064C40.0196 22.59 40.3291 22.8042 40.6155 23.0491C40.9064 23.2939 41.1397 23.5811 41.3152 23.9107C41.4954 24.2403 41.5854 24.6241 41.5854 25.0619C41.5854 25.6882 41.4353 26.2202 41.1351 26.6581C40.8395 27.096 40.4469 27.4303 39.9572 27.661C39.4722 27.887 38.9434 28 38.3706 28Z" fill="white"/>
<path d="M43.5838 27.8305V17.9428H49.8056V19.5389H45.2328V21.9261H48.212V23.5223H45.2328V26.2343H50.0966V27.8305H43.5838Z" fill="white"/>
<path d="M52.1226 27.8305V17.9428H53.6885L56.7093 24.0449C56.7509 24.1203 56.8086 24.2285 56.8825 24.3698C56.9564 24.5111 57.0141 24.6288 57.0557 24.7229C57.0511 24.6005 57.0442 24.4781 57.0349 24.3557C57.0303 24.2333 57.028 24.1297 57.028 24.0449V17.9428H58.5523V27.8305H57.0557L53.9794 21.7001C53.9379 21.6201 53.8801 21.5094 53.8062 21.3682C53.7323 21.2269 53.67 21.1116 53.6192 21.0221C53.6423 21.1257 53.6538 21.241 53.6538 21.3682C53.6584 21.4953 53.6607 21.6059 53.6607 21.7001V27.8305H52.1226ZM56.4321 16.8551C56.1689 16.8551 55.9287 16.8175 55.7116 16.7421C55.4991 16.6621 55.2959 16.5773 55.1019 16.4879C54.9356 16.4078 54.7739 16.3396 54.6169 16.2831C54.4644 16.2219 54.3074 16.1913 54.1457 16.1913C53.9748 16.1913 53.8247 16.2383 53.6954 16.3325C53.5707 16.422 53.5037 16.5773 53.4945 16.7986H52.7323C52.7323 16.2525 52.8455 15.8075 53.0718 15.4638C53.2981 15.1201 53.6885 14.9482 54.2427 14.9482C54.506 14.9482 54.7462 14.9859 54.9633 15.0612C55.1804 15.1366 55.3836 15.2213 55.573 15.3155C55.73 15.3908 55.8871 15.4591 56.0441 15.5203C56.2012 15.5815 56.3629 15.6121 56.5291 15.6121C56.7047 15.6121 56.8548 15.565 56.9795 15.4709C57.1088 15.3767 57.1758 15.2213 57.1804 15.0047H57.9426C57.9426 15.5462 57.8294 15.9911 57.6031 16.3396C57.3767 16.6833 56.9864 16.8551 56.4321 16.8551Z" fill="white"/>
<path d="M63.8763 28C63.225 28 62.6661 27.8611 62.1996 27.5833C61.7377 27.3008 61.3589 26.9194 61.0633 26.4392C60.7677 25.9589 60.5506 25.4127 60.412 24.8006C60.2735 24.1885 60.2042 23.5505 60.2042 22.8866C60.2042 22.2228 60.2735 21.5848 60.412 20.9727C60.5506 20.3606 60.7677 19.8144 61.0633 19.3341C61.3589 18.8539 61.7377 18.4748 62.1996 18.197C62.6661 17.9145 63.225 17.7733 63.8763 17.7733C64.5276 17.7733 65.0864 17.9145 65.553 18.197C66.0195 18.4748 66.4006 18.8539 66.6962 19.3341C66.9918 19.8144 67.2089 20.3606 67.3475 20.9727C67.4906 21.5848 67.5622 22.2228 67.5622 22.8866C67.5622 23.5505 67.4906 24.1885 67.3475 24.8006C67.2089 25.4127 66.9918 25.9589 66.6962 26.4392C66.4006 26.9194 66.0195 27.3008 65.553 27.5833C65.0864 27.8611 64.5276 28 63.8763 28ZM63.8763 26.4038C64.2181 26.4038 64.5137 26.305 64.7631 26.1072C65.0125 25.9095 65.2158 25.6434 65.3728 25.3091C65.5345 24.9748 65.6523 24.5982 65.7262 24.1791C65.8047 23.7601 65.844 23.3292 65.844 22.8866C65.844 22.4158 65.8047 21.9709 65.7262 21.5518C65.6523 21.128 65.5368 20.7537 65.3798 20.4288C65.2227 20.0993 65.0195 19.8403 64.77 19.6519C64.5206 19.4636 64.2227 19.3694 63.8763 19.3694C63.5298 19.3694 63.2319 19.4683 62.9825 19.6661C62.7331 19.8591 62.5298 20.1228 62.3728 20.4571C62.2157 20.7914 62.098 21.1681 62.0194 21.5871C61.9455 22.0062 61.9086 22.4393 61.9086 22.8866C61.9086 23.3528 61.9455 23.7977 62.0194 24.2215C62.098 24.6405 62.2157 25.0149 62.3728 25.3444C62.5298 25.674 62.7331 25.933 62.9825 26.1213C63.2319 26.3097 63.5298 26.4038 63.8763 26.4038Z" fill="white"/>
</g>
</svg>
