<svg width="113" height="36" viewBox="0 0 113 36" fill="none" xmlns="http://www.w3.org/2000/svg">
<g id="Group 7721">
<g id="EL GATO Y LA CAJA">
<path d="M36.7578 14.0521V4.16942H43.046V5.76477H38.4244V8.15074H41.4354V9.7461H38.4244V12.4568H43.3401V14.0521H36.7578Z" fill="white"/>
<path d="M45.3878 14.0521V4.16942H47.0543V12.4427H51.5779V14.0521H45.3878Z" fill="white"/>
<path d="M66.0508 14.2216C65.3879 14.2216 64.8114 14.0804 64.3212 13.798C63.8357 13.5109 63.4343 13.125 63.1168 12.6403C62.804 12.1509 62.5706 11.6026 62.4166 10.9956C62.2625 10.3838 62.1855 9.75551 62.1855 9.11078C62.1855 8.49429 62.2649 7.88485 62.4236 7.28248C62.5823 6.67539 62.8227 6.12478 63.1448 5.63065C63.4669 5.13651 63.8684 4.7412 64.3492 4.44472C64.8347 4.14824 65.4019 4 66.0508 4C66.6064 4 67.0732 4.09647 67.4513 4.28942C67.8341 4.47766 68.1539 4.72473 68.4107 5.03063C68.6674 5.33181 68.8892 5.65183 69.0759 5.99066L67.6054 6.83775C67.4326 6.50362 67.2226 6.2142 66.9752 5.96948C66.7324 5.72006 66.4243 5.59535 66.0508 5.59535C65.6587 5.59535 65.3273 5.70359 65.0565 5.92007C64.7857 6.13184 64.5663 6.41421 64.3983 6.76716C64.2302 7.11541 64.1088 7.4966 64.0341 7.91073C63.9594 8.32016 63.9221 8.72018 63.9221 9.11078C63.9221 9.55785 63.9641 9.99081 64.0481 10.4097C64.1368 10.8285 64.2676 11.205 64.4403 11.5391C64.613 11.8732 64.8324 12.1391 65.0985 12.3368C65.3693 12.5297 65.6867 12.6262 66.0508 12.6262C66.569 12.6262 66.9565 12.4521 67.2132 12.1038C67.4747 11.7509 67.6054 11.3132 67.6054 10.7908V10.5791H65.8968V8.99783H69.314V10.3673C69.314 11.2003 69.1693 11.9038 68.8798 12.478C68.5951 13.0521 68.2053 13.4874 67.7104 13.7839C67.2202 14.0757 66.6671 14.2216 66.0508 14.2216Z" fill="white"/>
<path d="M70.5353 14.0521L73.7425 4.16942H75.311L78.5181 14.0521H76.7255L74.7648 7.4166C74.7415 7.3413 74.7135 7.24012 74.6808 7.11306C74.6528 6.98599 74.6248 6.85187 74.5968 6.71069C74.5687 6.56951 74.5454 6.43774 74.5267 6.31538C74.5034 6.43774 74.4777 6.56951 74.4497 6.71069C74.4217 6.85187 74.3937 6.98599 74.3657 7.11306C74.3377 7.24012 74.312 7.3413 74.2887 7.4166L72.328 14.0521H70.5353ZM72.6081 11.8779L73.0562 10.3532H75.9972L76.4454 11.8779H72.6081Z" fill="white"/>
<path d="M82.3164 14.0521V5.77889H79.4734V4.16942H86.84V5.77889H83.983V14.0521H82.3164Z" fill="white"/>
<path d="M91.7866 14.2216C91.1284 14.2216 90.5635 14.0827 90.092 13.8051C89.6252 13.5227 89.2424 13.1415 88.9436 12.6615C88.6449 12.1815 88.4255 11.6356 88.2854 11.0238C88.1454 10.412 88.0753 9.77433 88.0753 9.11078C88.0753 8.44723 88.1454 7.80955 88.2854 7.19777C88.4255 6.58598 88.6449 6.04008 88.9436 5.56006C89.2424 5.08004 89.6252 4.7012 90.092 4.42354C90.5635 4.14118 91.1284 4 91.7866 4C92.4449 4 93.0097 4.14118 93.4812 4.42354C93.9527 4.7012 94.3378 5.08004 94.6366 5.56006C94.9354 6.04008 95.1548 6.58598 95.2948 7.19777C95.4396 7.80955 95.5119 8.44723 95.5119 9.11078C95.5119 9.77433 95.4396 10.412 95.2948 11.0238C95.1548 11.6356 94.9354 12.1815 94.6366 12.6615C94.3378 13.1415 93.9527 13.5227 93.4812 13.8051C93.0097 14.0827 92.4449 14.2216 91.7866 14.2216ZM91.7866 12.6262C92.1321 12.6262 92.4309 12.5274 92.6829 12.3297C92.935 12.1321 93.1404 11.8662 93.2992 11.532C93.4625 11.1979 93.5816 10.8214 93.6563 10.4026C93.7356 9.98375 93.7753 9.55315 93.7753 9.11078C93.7753 8.64017 93.7356 8.19545 93.6563 7.77661C93.5816 7.35307 93.4649 6.97893 93.3062 6.65422C93.1474 6.32479 92.942 6.06596 92.6899 5.87772C92.4379 5.68947 92.1368 5.59535 91.7866 5.59535C91.4365 5.59535 91.1354 5.69418 90.8833 5.89184C90.6312 6.08478 90.4258 6.34832 90.2671 6.68245C90.1084 7.01658 89.9893 7.39307 89.91 7.81191C89.8353 8.23075 89.7979 8.6637 89.7979 9.11078C89.7979 9.57668 89.8353 10.0214 89.91 10.4449C89.9893 10.8638 90.1084 11.2379 90.2671 11.5673C90.4258 11.8968 90.6312 12.1556 90.8833 12.3438C91.1354 12.5321 91.4365 12.6262 91.7866 12.6262Z" fill="white"/>
<path d="M108.22 14.0521V10.1838L105.335 4.16942H107.184L109.383 9.13902H108.71L110.923 4.16942H112.758L109.873 10.1838V14.0521H108.22Z" fill="white"/>
<path d="M36.7578 31.8306V21.9479H38.4244V30.2211H42.948V31.8306H36.7578Z" fill="white"/>
<path d="M44.6455 31.8306L47.8526 21.9479H49.4212L52.6283 31.8306H50.8357L48.875 25.195C48.8516 25.1197 48.8236 25.0186 48.7909 24.8915C48.7629 24.7644 48.7349 24.6303 48.7069 24.4891C48.6789 24.3479 48.6556 24.2162 48.6369 24.0938C48.6135 24.2162 48.5879 24.3479 48.5599 24.4891C48.5319 24.6303 48.5038 24.7644 48.4758 24.8915C48.4478 25.0186 48.4221 25.1197 48.3988 25.195L46.4381 31.8306H44.6455ZM46.7182 29.6564L47.1664 28.1316H50.1074L50.5556 29.6564H46.7182Z" fill="white"/>
<path d="M66.0648 31.9859C65.3553 31.9859 64.7531 31.84 64.2582 31.5482C63.7634 31.2517 63.3642 30.8588 63.0608 30.3694C62.7574 29.8752 62.5356 29.327 62.3956 28.7246C62.2555 28.1175 62.1855 27.5057 62.1855 26.8892C62.1855 26.2963 62.2555 25.7009 62.3956 25.1033C62.5403 24.5009 62.7667 23.9503 63.0748 23.4514C63.3829 22.9526 63.7821 22.5526 64.2722 22.2514C64.7671 21.9455 65.3646 21.7926 66.0648 21.7926C66.6157 21.7926 67.0919 21.8937 67.4933 22.0961C67.8995 22.2938 68.2356 22.5502 68.5017 22.8655C68.7678 23.1808 68.9685 23.5103 69.1039 23.8538L67.6194 24.5738C67.4326 24.2068 67.2202 23.9173 66.9822 23.7056C66.7487 23.4938 66.443 23.3879 66.0648 23.3879C65.668 23.3879 65.3319 23.4938 65.0565 23.7056C64.7811 23.9173 64.557 24.1974 64.3843 24.5456C64.2162 24.8939 64.0948 25.2727 64.0201 25.6821C63.9454 26.0915 63.9081 26.4939 63.9081 26.8892C63.9081 27.3081 63.9501 27.7245 64.0341 28.1387C64.1228 28.5528 64.2535 28.9293 64.4263 29.2681C64.6037 29.607 64.8277 29.8799 65.0985 30.087C65.3739 30.2893 65.696 30.3905 66.0648 30.3905C66.443 30.3905 66.7557 30.2729 67.0032 30.0376C67.2506 29.7976 67.4607 29.4917 67.6334 29.1199L69.1459 29.6987C68.9685 30.1364 68.7398 30.5294 68.4597 30.8776C68.1842 31.2211 67.8481 31.4917 67.4513 31.6894C67.0545 31.8871 66.5924 31.9859 66.0648 31.9859Z" fill="white"/>
<path d="M70.5353 31.8306L73.7425 21.9479H75.311L78.5181 31.8306H76.7255L74.7648 25.195C74.7415 25.1197 74.7135 25.0186 74.6808 24.8915C74.6528 24.7644 74.6248 24.6303 74.5968 24.4891C74.5687 24.3479 74.5454 24.2162 74.5267 24.0938C74.5034 24.2162 74.4777 24.3479 74.4497 24.4891C74.4217 24.6303 74.3937 24.7644 74.3657 24.8915C74.3377 25.0186 74.312 25.1197 74.2887 25.195L72.328 31.8306H70.5353ZM72.6081 29.6564L73.0562 28.1316H75.9972L76.4454 29.6564H72.6081Z" fill="white"/>
<path d="M83.1147 32C82.4098 32 81.7842 31.8212 81.238 31.4635C80.6965 31.1058 80.281 30.6023 79.9916 29.9529L81.4201 29.2611C81.5461 29.5058 81.6862 29.7129 81.8402 29.8823C81.9989 30.0517 82.181 30.1811 82.3864 30.2705C82.5965 30.3599 82.8439 30.4046 83.1287 30.4046C83.3948 30.4046 83.6492 30.3505 83.8919 30.2423C84.1394 30.1293 84.3401 29.927 84.4941 29.6352C84.6482 29.3434 84.7252 28.9269 84.7252 28.3857V21.9479H86.3778V28.4705C86.3778 29.167 86.2774 29.7458 86.0767 30.207C85.876 30.6635 85.6145 31.0235 85.2924 31.287C84.9703 31.5459 84.6179 31.7294 84.2351 31.8376C83.8523 31.9459 83.4788 32 83.1147 32Z" fill="white"/>
<path d="M87.7952 31.8306L91.0024 21.9479H92.5709L95.778 31.8306H93.9854L92.0247 25.195C92.0014 25.1197 91.9734 25.0186 91.9407 24.8915C91.9127 24.7644 91.8847 24.6303 91.8567 24.4891C91.8286 24.3479 91.8053 24.2162 91.7866 24.0938C91.7633 24.2162 91.7376 24.3479 91.7096 24.4891C91.6816 24.6303 91.6536 24.7644 91.6256 24.8915C91.5976 25.0186 91.5719 25.1197 91.5485 25.195L89.5879 31.8306H87.7952ZM89.868 29.6564L90.3161 28.1316H93.2571L93.7053 29.6564H89.868Z" fill="white"/>
</g>
<g id="Clip path group">
<mask id="mask0_434_550" style="mask-type:luminance" maskUnits="userSpaceOnUse" x="0" y="0" width="20" height="36">
<g id="clip0_8036_3734">
<path id="Vector" d="M19.9745 0.863525H0.5V35.1363H19.9745V0.863525Z" fill="white"/>
</g>
</mask>
<g mask="url(#mask0_434_550)">
<g id="Group">
<path id="Vector_2" d="M13.9296 2.55103L16.0047 3.58916C16.1759 3.67534 16.3888 3.56712 16.3888 3.39678V1.086C16.3888 0.905629 16.1528 0.79941 15.9839 0.903625L13.9088 2.17625C13.7561 2.27045 13.7653 2.46886 13.9296 2.55103Z" fill="white"/>
<path id="Vector_3" d="M4.63417 3.58919L6.70932 2.55106C6.87124 2.47089 6.88281 2.27047 6.73014 2.17628L4.65499 0.905658C4.48611 0.801443 4.25012 0.905658 4.25012 1.08803V3.39879C4.25012 3.56916 4.46297 3.67738 4.63417 3.59119V3.58919Z" fill="white"/>
<path id="Vector_4" d="M19.3519 20.3817L7.90967 14.6579V13.4073L9.65862 14.2831C9.83675 14.3713 10.0357 14.4174 10.2347 14.4174C10.4336 14.4174 10.6326 14.3733 10.8107 14.2831L16.0159 11.6798C16.3722 11.5014 16.592 11.1727 16.592 10.816V5.60923C16.592 5.2525 16.3722 4.92383 16.0159 4.74546L10.8107 2.14208C10.4544 1.96371 10.0149 1.96371 9.65862 2.14208L4.45341 4.74546C4.09715 4.92383 3.87737 5.2525 3.87737 5.60923V10.816C3.87737 11.1727 4.09715 11.5014 4.45341 11.6798L5.42737 12.1668V15.2792C5.42737 15.664 5.66332 16.0187 6.04734 16.2111L17.4896 21.9349V29.192L10.2347 32.8214L2.97975 29.192V21.9349L6.13526 20.3517C6.44064 20.1993 6.44064 19.8186 6.13526 19.6662L4.67319 18.9347C4.46728 18.8325 4.21511 18.8325 4.00922 18.9347L1.64721 20.1172L1.11743 20.3817C0.733406 20.5741 0.497437 20.9288 0.497437 21.3136V29.8131C0.497437 30.1979 0.733406 30.5526 1.11743 30.745L9.61234 34.9938C9.80436 35.0901 10.0195 35.1382 10.2323 35.1382C10.4452 35.1382 10.6603 35.0901 10.8523 34.9938L19.3473 30.745C19.7313 30.5526 19.9673 30.1979 19.9673 29.8131V21.3136C19.9673 20.9288 19.7313 20.5741 19.3473 20.3817H19.3519ZM6.18383 6.18642L10.237 4.16025L14.2901 6.18642V10.2408L10.237 12.267L6.18383 10.2408V6.18642Z" fill="white"/>
</g>
</g>
</g>
</g>
</svg>
