<svg width="23" height="40" viewBox="0 0 23 40" fill="none" xmlns="http://www.w3.org/2000/svg">
<g id="Frame">
<g id="Clip path group">
<mask id="mask0_434_393" style="mask-type:luminance" maskUnits="userSpaceOnUse" x="1" y="2" width="21" height="36">
<g id="clip0_8036_3734">
<path id="Vector" d="M21.2371 2.86353H1.7627V37.1363H21.2371V2.86353Z" fill="white"/>
</g>
</mask>
<g mask="url(#mask0_434_393)">
<g id="Group">
<path id="Vector_2" d="M15.1923 4.55103L17.2674 5.58916C17.4386 5.67534 17.6515 5.56712 17.6515 5.39678V3.086C17.6515 2.90563 17.4155 2.79941 17.2466 2.90362L15.1714 4.17625C15.0188 4.27045 15.028 4.46886 15.1923 4.55103Z" fill="white"/>
<path id="Vector_3" d="M5.89674 5.58919L7.97189 4.55106C8.13381 4.47089 8.14538 4.27047 7.99271 4.17628L5.91756 2.90566C5.74868 2.80144 5.5127 2.90566 5.5127 3.08803V5.39879C5.5127 5.56916 5.72554 5.67738 5.89674 5.59119V5.58919Z" fill="white"/>
<path id="Vector_4" d="M20.6145 22.3817L9.17224 16.6579V15.4073L10.9212 16.2831C11.0993 16.3713 11.2983 16.4174 11.4972 16.4174C11.6962 16.4174 11.8951 16.3733 12.0733 16.2831L17.2785 13.6798C17.6348 13.5014 17.8545 13.1727 17.8545 12.816V7.60923C17.8545 7.2525 17.6348 6.92383 17.2785 6.74546L12.0733 4.14208C11.717 3.96371 11.2775 3.96371 10.9212 4.14208L5.71599 6.74546C5.35972 6.92383 5.13994 7.2525 5.13994 7.60923V12.816C5.13994 13.1727 5.35972 13.5014 5.71599 13.6798L6.68994 14.1668V17.2792C6.68994 17.664 6.9259 18.0187 7.30991 18.2111L18.7522 23.9349V31.192L11.4972 34.8214L4.24232 31.192V23.9349L7.39784 22.3517C7.70321 22.1993 7.70321 21.8186 7.39784 21.6662L5.93576 20.9347C5.72985 20.8325 5.47768 20.8325 5.2718 20.9347L2.90978 22.1172L2.38001 22.3817C1.99598 22.5741 1.76001 22.9288 1.76001 23.3136V31.8131C1.76001 32.1979 1.99598 32.5526 2.38001 32.745L10.8749 36.9938C11.0669 37.0901 11.2821 37.1382 11.4949 37.1382C11.7078 37.1382 11.9229 37.0901 12.1149 36.9938L20.6098 32.745C20.9939 32.5526 21.2298 32.1979 21.2298 31.8131V23.3136C21.2298 22.9288 20.9939 22.5741 20.6098 22.3817H20.6145ZM7.44641 8.18642L11.4996 6.16025L15.5527 8.18642V12.2408L11.4996 14.267L7.44641 12.2408V8.18642Z" fill="white"/>
</g>
</g>
</g>
</g>
</svg>
