<svg width="33" height="32" viewBox="0 0 33 32" fill="none" xmlns="http://www.w3.org/2000/svg">
<g id="Frame 26086281">
<g id="Group">
<path id="Vector" d="M16.4 31.5C25.0709 31.5 32.1 24.5604 32.1 16C32.1 7.43959 25.0709 0.5 16.4 0.5C7.72914 0.5 0.700012 7.43959 0.700012 16C0.700012 24.5604 7.72914 31.5 16.4 31.5Z" fill="black"/>
<path id="Vector_2" d="M25.0724 10.6859C24.5242 10.932 23.9261 11.0796 23.3529 11.178C23.627 11.1288 24.0507 10.6367 24.2002 10.4399C24.4494 10.1447 24.6488 9.77562 24.7734 9.40657C24.7983 9.38197 24.7983 9.33276 24.7734 9.30816C24.7235 9.28356 24.7235 9.30816 24.6737 9.30816C24.0258 9.6526 23.3529 9.89864 22.6302 10.0955C22.5804 10.1201 22.5305 10.0955 22.4807 10.0463C22.4308 9.97245 22.3561 9.92324 22.3062 9.87403C22.0072 9.628 21.6832 9.43118 21.3094 9.28356C20.8359 9.08673 20.3126 9.01292 19.7892 9.03753C19.2908 9.06213 18.7924 9.20975 18.3438 9.43118C17.8953 9.6526 17.4965 9.97245 17.1726 10.3661C16.8486 10.7597 16.5994 11.2518 16.4748 11.7439C16.3502 12.2359 16.3751 12.7034 16.4499 13.1955C16.4499 13.2693 16.4499 13.2939 16.3751 13.2693C13.5591 12.851 11.2165 11.8669 9.32258 9.72641C9.24782 9.628 9.19798 9.628 9.12321 9.72641C8.30083 10.9566 8.69956 12.9248 9.72131 13.909C9.87083 14.032 9.99544 14.1796 10.145 14.278C10.0951 14.278 9.39734 14.2042 8.77433 13.909C8.69956 13.8597 8.64972 13.8843 8.64972 13.9828C8.64972 14.1058 8.64972 14.2288 8.67464 14.3764C8.82417 15.6312 9.69639 16.7629 10.8926 17.2304C11.0421 17.2796 11.1916 17.3534 11.3411 17.378C11.067 17.4272 10.7929 17.4764 9.99544 17.4272C9.89575 17.4026 9.87083 17.4518 9.89575 17.5502C10.4938 19.1248 11.7399 19.5923 12.7118 19.8629C12.8364 19.8875 12.961 19.8875 13.0856 19.9121C13.0856 19.9121 13.0607 19.9121 13.0607 19.9367C12.7367 20.4042 11.6651 20.7732 11.1418 20.9455C10.2197 21.2653 9.2229 21.4129 8.22607 21.3145C8.07655 21.2899 8.02671 21.2899 8.00179 21.3145C7.95194 21.3391 8.00179 21.3883 8.05163 21.4129C8.25099 21.5359 8.45036 21.659 8.64972 21.7574C9.27274 22.0772 9.92067 22.3478 10.5935 22.5201C14.0824 23.4796 18.0199 22.7661 20.6365 20.2074C22.705 18.1899 23.4277 15.4097 23.4277 12.605C23.4277 12.5066 23.5523 12.4328 23.627 12.3836C24.1753 11.9899 24.5989 11.5224 24.9977 10.9812C25.0973 10.8582 25.0973 10.7597 25.0973 10.7105V10.6859C25.1223 10.6367 25.1223 10.6613 25.0724 10.6859Z" fill="white"/>
</g>
</g>
</svg>
