<svg width="33" height="32" viewBox="0 0 33 32" fill="none" xmlns="http://www.w3.org/2000/svg">
<g id="Frame 26086283">
<g id="Group">
<path id="Vector" d="M16.6 31.5C25.2709 31.5 32.3 24.5604 32.3 16C32.3 7.43959 25.2709 0.5 16.6 0.5C7.92915 0.5 0.900024 7.43959 0.900024 16C0.900024 24.5604 7.92915 31.5 16.6 31.5Z" fill="black"/>
<g id="Group_2">
<g id="Group_3">
<path id="Vector_2" d="M17.4472 13.1952C17.4721 14.0071 17.4721 14.819 17.4472 15.6309C17.4223 16.1476 17.0734 16.5167 16.5999 16.4921C16.1264 16.4921 15.7775 16.1476 15.7526 15.6063C15.7277 15.1881 15.7526 14.7698 15.7526 14.3516C15.7526 13.9579 15.7277 13.5889 15.7526 13.1952C15.7775 12.654 16.1015 12.3095 16.5501 12.2849C17.0485 12.2357 17.4223 12.6294 17.4472 13.1952Z" fill="white"/>
<path id="Vector_3" d="M20.0139 15.5571C19.9889 14.7944 19.9889 14.0071 20.0139 13.2444C20.0388 12.654 20.3877 12.2849 20.8861 12.2849C21.3845 12.3095 21.7085 12.6786 21.7085 13.2936C21.7085 13.6873 21.7085 14.0563 21.7085 14.45C21.7085 14.7944 21.7085 15.1635 21.7085 15.5079C21.6836 16.123 21.3845 16.4921 20.8861 16.5167C20.3877 16.5167 20.0388 16.1476 20.0139 15.5571Z" fill="white"/>
<path id="Vector_4" d="M25.1727 9.40645C25.1976 8.39772 24.8736 8.00407 23.7273 8.02867C21.0857 8.07787 18.4441 8.05327 15.8025 8.05327C14.4817 8.05327 13.1609 8.07787 11.8401 8.05327C11.242 8.05327 10.7935 8.17629 10.4197 8.71756C9.77173 9.67708 9.02411 10.5628 8.35125 11.4731C8.15189 11.7437 8.02728 12.0636 8.02728 12.4326C8.0522 15.7049 8.02728 18.9771 8.0522 22.2739C8.0522 22.9874 8.35125 23.258 9.09887 23.2826C10.1206 23.3072 11.1673 23.2826 12.3386 23.2826C12.3386 23.8977 12.3136 24.4144 12.3386 24.9557C12.3635 25.4723 12.6874 25.7922 13.1859 25.8168C13.5098 25.8414 13.8338 25.7922 14.1578 25.8168C14.8306 25.8906 15.3539 25.5953 15.7028 25.0541C16.0019 24.6112 16.4006 24.2422 16.7744 23.8977C17.2479 23.4549 17.7713 23.1596 18.4939 23.258C19.092 23.3318 19.7151 23.258 20.3132 23.2826C20.8116 23.3072 21.2352 23.1104 21.5343 22.7414C22.4813 21.5358 23.6276 20.5517 24.7241 19.4691C25.1228 19.0755 25.2474 18.6818 25.2474 18.1652C25.1478 15.262 25.1228 12.3342 25.1727 9.40645ZM23.4282 17.5009C22.7554 18.1406 21.9828 18.8541 21.2601 19.5676C21.0109 19.8136 20.7368 19.8874 20.4128 19.8874C19.3662 19.8874 18.3444 19.912 17.2978 19.8628C16.8243 19.8382 16.5003 19.9858 16.1763 20.3303C15.5284 21.0191 14.8306 21.6834 14.0332 22.4461V19.9366H11.6159C11.5162 19.8382 11.4913 19.8136 11.4663 19.789C11.4414 19.7644 11.4165 19.7398 11.4165 19.7152C11.4165 16.443 11.4165 13.1707 11.4165 9.89851C12.2389 9.67708 22.6308 9.70168 23.4033 9.89851V17.5009H23.4282Z" fill="white"/>
<path id="Vector_5" d="M17.4472 13.1952C17.4721 14.0071 17.4721 14.819 17.4472 15.6309C17.4223 16.1476 17.0734 16.5167 16.5999 16.4921C16.1264 16.4921 15.7775 16.1476 15.7526 15.6063C15.7277 15.1881 15.7526 14.7698 15.7526 14.3516C15.7526 13.9579 15.7277 13.5889 15.7526 13.1952C15.7775 12.654 16.1015 12.3095 16.5501 12.2849C17.0485 12.2357 17.4223 12.6294 17.4472 13.1952Z" fill="white"/>
<path id="Vector_6" d="M21.7333 14.45C21.7333 14.7944 21.7333 15.1635 21.7333 15.5079C21.7084 16.123 21.4093 16.4921 20.9109 16.5167C20.4125 16.5413 20.0387 16.1722 20.0387 15.5571C20.0138 14.7944 20.0138 14.0071 20.0387 13.2444C20.0636 12.654 20.4125 12.2849 20.9109 12.2849C21.4093 12.3095 21.7333 12.6786 21.7333 13.2936C21.7333 13.6627 21.7333 14.0563 21.7333 14.45Z" fill="white"/>
<path id="Vector_7" d="M17.4472 15.6309C17.4223 16.1475 17.0734 16.5166 16.5999 16.492C16.1264 16.492 15.7775 16.1475 15.7526 15.6063C15.7277 15.188 15.7526 14.7698 15.7526 14.3515C15.7526 13.9579 15.7277 13.5888 15.7526 13.1952C15.7775 12.6539 16.1015 12.3095 16.5501 12.2848C17.0485 12.2602 17.4472 12.6293 17.4472 13.2198C17.4472 14.0071 17.4721 14.819 17.4472 15.6309Z" fill="white"/>
<path id="Vector_8" d="M21.7333 14.45C21.7333 14.7944 21.7333 15.1635 21.7333 15.5079C21.7084 16.123 21.4093 16.4921 20.9109 16.5167C20.4125 16.5413 20.0387 16.1722 20.0387 15.5571C20.0138 14.7944 20.0138 14.0071 20.0387 13.2444C20.0636 12.654 20.4125 12.2849 20.9109 12.2849C21.4093 12.3095 21.7333 12.6786 21.7333 13.2936C21.7333 13.6627 21.7333 14.0563 21.7333 14.45Z" fill="white"/>
</g>
</g>
</g>
</g>
</svg>
