<svg width="32" height="32" viewBox="0 0 32 32" fill="none" xmlns="http://www.w3.org/2000/svg">
<g id="Frame 26086282">
<g id="Group">
<path id="Vector" d="M16 31.5C24.6709 31.5 31.7 24.5604 31.7 16C31.7 7.43959 24.6709 0.5 16 0.5C7.32912 0.5 0.299988 7.43959 0.299988 16C0.299988 24.5604 7.32912 31.5 16 31.5Z" fill="black"/>
<path id="Vector_2" d="M24.3983 13.7363C24.3983 11.6697 22.7037 10.0212 20.6353 10.0212H10.991C8.89765 10.0212 7.22797 11.6943 7.22797 13.7363V18.1649C7.22797 20.2316 8.92257 21.88 10.991 21.88H20.6353C22.7286 21.88 24.3983 20.207 24.3983 18.1649V13.7363ZM18.7164 16.295L14.4051 18.4109C14.2307 18.5093 13.6575 18.3863 13.6575 18.1895V13.8347C13.6575 13.6379 14.2307 13.5149 14.4051 13.6133L18.5419 15.8276C18.7164 15.9506 18.8908 16.1966 18.7164 16.295Z" fill="white"/>
</g>
</g>
</svg>
